HIERARCHY
ROOT Hips
{
  OFFSET 57.8838 95.319 338.509
  CHANNELS 6 Xposition Yposition Zposition Zrotation Xrotation Yrotation
  JOINT LeftUpLeg
  {
    OFFSET 8.64259 1.95398 -2.38835
    CHANNELS 3 Zrotation Xrotation Yrotation
    JOINT LeftLeg
    {
      OFFSET 43.7702 0 0
      CHANNELS 3 Zrotation Xrotation Yrotation
      JOINT LeftFoot
      {
        OFFSET 40.6238 0 0
        CHANNELS 3 Zrotation Xrotation Yrotation
        JOINT LeftToeBase
        {
          OFFSET 12.7242 0 0
          CHANNELS 3 Zrotation Xrotation Yrotation
          End Site
          {
            OFFSET 0 0 0
          }
        }
      }
    }
  }
  JOINT RightUpLeg
  {
    OFFSET -8.2249 1.95398 -2.59336
    CHANNELS 3 Zrotation Xrotation Yrotation
    JOINT RightLeg
    {
      OFFSET 43.5653 0 0
      CHANNELS 3 Zrotation Xrotation Yrotation
      JOINT RightFoot
      {
        OFFSET 40.6238 0 0
        CHANNELS 3 Zrotation Xrotation Yrotation
        JOINT RightToeBase
        {
          OFFSET 12.7242 0 0
          CHANNELS 3 Zrotation Xrotation Yrotation
          End Site
          {
            OFFSET 0 0 0
          }
        }
      }
    }
  }
  JOINT Spine
  {
    OFFSET 0.165834 0.87714 6.61349
    CHANNELS 3 Zrotation Xrotation Yrotation
    JOINT Spine1
    {
      OFFSET 7.38963 1.71661e-005 0
      CHANNELS 3 Zrotation Xrotation Yrotation
      JOINT Spine2
      {
        OFFSET 11.9445 1.14441e-005 0
        CHANNELS 3 Zrotation Xrotation Yrotation
        JOINT Spine3
        {
          OFFSET 14.7254 4.19617e-005 0
          CHANNELS 3 Zrotation Xrotation Yrotation
          JOINT Spine4
          {
            OFFSET 10.9679 0 0
            CHANNELS 3 Zrotation Xrotation Yrotation
            JOINT RightShoulder
            {
              OFFSET 2.46616 -1.6653 3.69651
              CHANNELS 3 Zrotation Xrotation Yrotation
              JOINT RightArm
              {
                OFFSET 13.0012 0 0
                CHANNELS 3 Zrotation Xrotation Yrotation
                JOINT RightForeArm
                {
                  OFFSET 28.7848 1.62311e-005 0
                  CHANNELS 3 Zrotation Xrotation Yrotation
                  JOINT RightHand
                  {
                    OFFSET 26.5688 1.62095e-005 0
                    CHANNELS 3 Zrotation Xrotation Yrotation
                    End Site
                    {
                      OFFSET 0 0 0
                    }
                  }
                }
              }
            }
            JOINT LeftShoulder
            {
              OFFSET 2.38034 -1.29275 -3.7523
              CHANNELS 3 Zrotation Xrotation Yrotation
              JOINT LeftArm
              {
                OFFSET 16.3182 6.07031e-005 0
                CHANNELS 3 Zrotation Xrotation Yrotation
                JOINT LeftForeArm
                {
                  OFFSET 27.0901 0 0
                  CHANNELS 3 Zrotation Xrotation Yrotation
                  JOINT LeftHand
                  {
                    OFFSET 24.5451 1.51738e-005 0
                    CHANNELS 3 Zrotation Xrotation Yrotation
                    End Site
                    {
                      OFFSET 0 0 0
                    }
                  }
                }
              }
            }
            JOINT Neck
            {
              OFFSET 5.0226 -0.0266342 0
              CHANNELS 3 Zrotation Xrotation Yrotation
              JOINT Head
              {
                OFFSET 6.69364 2.86102e-005 0
                CHANNELS 3 Zrotation Xrotation Yrotation
                End Site
                {
                  OFFSET 0 0 0
                }
              }
            }
          }
        }
      }
    }
  }
}
MOTION
Frames:	10
Frame Time:	0.0416667
9.32767 88.982 3.30934 100.627 -29.9881 94.8686 -175.615 -12.8426 83.9755 -33.3908 11.1249 2.20876 71.7836 20.968 10.7811 56.9931 13.55 8.8925 176.073 35.0909 84.9575 -20.598 -10.5063 2.01735 48.6411 19.9477 17.5604 24.5071 7.07256 -8.63072 -1.30758 9.2959 -89.9474 8.28599 -2.58648 0.258644 -3.38244 -2.57257 0.372298 -25.9378 -2.54455 -0.531178 -5.92511 -2.54456 -0.531172 98.6837 -49.4456 -87.4456 27.0957 -3.21697 4.92532 6.46101 -6.81195 -3.60275 -16.4569 -1.24064 3.61538 -83.8084 -48.034 87.8197 -22.8969 5.21028 -12.8591 24.6032 17.959 -67.4128 2.45221 -0.603656 -16.5051 33.7251 -4.54602 -5.60432 -16.2642 -2.5295 5.10364 
19.0608 88.021 11.8388 94.2949 -25.7988 92.4099 -176.051 -13.2679 88.1501 -36.5584 12.7405 5.02705 69.438 12.4707 1.79026 61.0159 15.6198 8.92993 173.847 38.1662 85.1794 -23.1512 -9.75551 3.76906 49.6202 18.8877 12.744 25.894 4.8114 -7.66782 -1.57085 8.6568 -90.6305 9.55372 -3.41639 -0.987641 -2.11291 -3.45656 -0.836165 -24.6745 -2.96152 -1.96945 -4.66185 -2.96151 -1.96944 97.7775 -49.576 -88.8523 26.6199 -4.72388 1.41994 5.22789 -1.28713 -10.1021 -14.0388 -0.623016 0.0414546 -83.8566 -49.3781 87.8973 -28.607 -5.31516 -14.7505 17.1825 38.1262 -41.2896 4.18003 -0.692938 -14.9098 36.7619 -2.78915 -0.862351 -18.7186 -2.93553 4.51055 
29.3063 87.7998 21.2579 92.5064 -24.4628 92.6097 -177.142 -8.5252 90.5549 -51.0646 11.1066 6.98509 58.755 -1.32001 -5.57597 55.1911 12.6288 9.49251 171.535 39.0644 89.3036 -40.2938 -13.1031 4.60514 61.5553 2.22105 4.61987 23.0469 7.53933 0.4694 -1.33669 8.36554 -91.2831 10.1018 -3.24814 -2.27871 -1.56694 -3.34523 -2.1335 -24.1054 -2.4135 -3.14934 -4.09276 -2.4135 -3.14935 97.2971 -48.889 -89.6671 24.9333 -9.68183 -2.73044 4.17059 -0.00662749 -18.3735 -16.843 -0.505387 -1.75989 -84.1254 -50.6193 87.6324 -32.2517 -17.1788 -14.6389 4.98392 54.4228 -12.1949 2.92612 -0.537981 -14.0773 40.025 -1.41248 1.74644 -21.8295 -2.93238 4.00403 
38.8324 86.4865 29.8122 95.447 -29.2816 94.9342 -178.177 0.367789 89.7671 -74.5175 5.69695 6.76218 57.3177 -0.836819 1.05626 49.1552 10.2101 12.6878 171.185 35.0399 94.9278 -53.1946 -16.9186 3.37857 64.8334 -8.0227 -4.7829 31.6192 -3.71471 1.97626 -0.543236 8.71802 -91.5804 9.40485 -1.79342 -3.00028 -2.26813 -1.92368 -2.91853 -24.7781 -0.809382 -3.40009 -4.76546 -0.809378 -3.40009 96.3076 -46.7319 -91.4901 22.6813 -12.1296 -12.7573 0.708193 -5.35971 -24.0414 -19.597 -0.709902 -1.01363 -83.8264 -51.7586 88.2012 -26.9804 -25.2221 -11.2946 -0.461798 57.3512 -0.664938 -0.16888 -0.225649 -14.2629 39.5059 -0.53648 4.02093 -20.5749 -2.92968 2.47225 
47.2163 87.2311 37.9301 95.6525 -29.6525 94.7635 -178.587 17.4816 85.0539 -95.3798 2.85413 6.37893 58.2675 0.92262 1.04644 48.7363 9.70694 10.9831 170.705 26.8893 96.2588 -54.6767 -16.5178 3.09867 67.9432 -14.8537 -8.43186 37.1016 -10.6771 2.31747 -0.0243747 8.58244 -91.6947 9.68529 -0.814564 -3.29739 -1.98948 -0.958817 -3.25842 -24.491 0.213456 -3.38971 -4.4784 0.213477 -3.3897 96.1728 -43.731 -92.0981 20.154 -12.5944 -21.1656 -3.77592 -8.67089 -30.6449 -19.4248 -0.57102 -1.8086 -82.9017 -51.6238 89.5604 -19.1378 -29.0142 -5.56732 -0.447839 55.3275 -0.00726916 -0.542496 -0.183881 -12.9939 36.2761 -1.10489 7.95213 -21.6148 -4.8761 0.630505 
55.7091 92.2971 46.1372 95.8357 -28.0347 90.0678 -175.001 33.1177 76.106 -99.9026 2.77902 5.49028 58.3268 1.49559 3.36709 47.3053 8.96985 11.0561 172.328 13.6797 91.9232 -44.9561 -16.6426 1.38084 69.3822 -12.1671 -4.99091 36.7218 -10.6729 -0.905774 0.252579 8.39035 -91.0388 10.0958 0.0299988 -2.06562 -1.5767 -0.0609468 -2.06494 -24.1002 0.649313 -1.96119 -4.08755 0.649328 -1.96118 95.9484 -41.3562 -92.8158 19.6374 -12.523 -22.7786 -6.6565 -6.06235 -40.002 -17.6755 -0.334158 -3.07402 -82.5733 -49.1285 89.8288 -12.3119 -28.68 0.420617 -0.689048 47.201 -2.49452 0.584343 -0.305733 -12.5308 32.0634 -4.48843 8.61736 -20.5144 -7.60025 -2.34767 
64.4516 100.051 53.7574 97.3372 -29.3487 87.5455 -171.663 39.7952 69.0876 -91.3309 3.11723 3.85528 57.9729 -0.693429 0.618177 46.2137 8.31903 10.4676 173.402 4.03116 88.5075 -36.2949 -15.6316 -1.17525 60.2236 8.60591 7.76474 26.8898 3.23717 -8.83443 0.702716 8.24762 -90.4852 10.3785 1.17788 -1.06512 -1.29249 1.12987 -1.11594 -23.8296 1.44349 -0.661873 -3.817 1.4435 -0.661872 97.2029 -39.9411 -90.817 19.7871 -17.38 -21.7883 -11.2933 -3.75023 -48.7897 -15.1876 -0.335445 -2.60945 -82.2349 -47.417 90.1978 -7.13597 -28.3285 3.65748 -0.802089 42.0437 -3.94995 1.17907 -0.367271 -13.3223 25.3002 -7.39875 8.5063 -19.9009 -9.29325 -5.777 
72.5361 105.837 61.0822 98.0803 -32.9846 88.5093 -172.4 40.6027 69.4047 -79.9473 1.01096 2.068 56.9906 -3.26635 -2.74345 42.82 6.62905 11.1037 174.065 3.20163 88.9276 -33.2714 -17.3255 -1.02881 54.2 15.728 13.9824 22.8808 10.3516 -11.6848 1.06037 8.23715 -90.5379 10.4094 1.86616 -1.23229 -1.26092 1.81011 -1.31324 -23.8053 2.1502 -0.614292 -3.79267 2.1502 -0.614296 97.1304 -38.2728 -91.1633 19.294 -21.7233 -20.113 -15.486 1.20879 -59.9706 -10.559 -0.163136 -3.74256 -81.186 -46.2095 91.7602 -5.45418 -28.1086 7.77947 -0.398212 36.5039 -5.9621 2.78708 -0.472126 -12.8059 23.3697 -7.18146 9.35449 -20.058 -9.05667 -7.12158 
80.6575 108.874 68.5255 98.475 -35.0057 88.81 -174.867 36.7414 70.4785 -66.8502 0.129922 0.289451 57.1769 -2.74751 -3.74024 40.7713 5.53122 10.6971 172.77 5.03222 89.0328 -27.3704 -8.52673 0.0746827 60.1827 11.8428 15.3768 26.4823 4.27314 -11.0453 1.14343 8.26147 -90.4576 10.3611 2.06852 -1.08909 -1.30871 2.01854 -1.17909 -23.8563 2.30012 -0.4168 -3.84364 2.30016 -0.416795 96.6976 -38.4511 -91.9186 18.9716 -24.8846 -18.7644 -16.8902 6.63165 -71.5487 -11.8604 -0.339102 -1.92481 -81.3953 -43.6275 91.2315 -4.53968 -27.1944 12.4935 -0.54235 32.0022 -7.72941 4.61781 -0.56448 -12.1181 23.1676 -6.77715 8.98306 -20.2061 -8.35261 -8.12481 
88.6639 108.214 75.9123 97.0099 -39.0666 88.6565 -176.587 34.2259 72.9963 -52.7804 1.35295 -1.83202 57.4336 -2.60744 -4.14614 40.4646 5.40537 11.2446 172.938 8.01881 89.8018 -20.6818 -4.93021 1.20654 58.0493 15.7451 14.2251 28.0735 1.59969 -10.311 1.34251 8.14018 -90.4386 10.6064 2.47219 -1.09485 -1.06272 2.42163 -1.20265 -23.6163 2.68688 -0.300765 -3.60362 2.68688 -0.300767 96.5874 -39.3594 -91.9874 17.0269 -30.0525 -20.7199 -19.6796 10.9475 -78.6009 -12.0391 -0.492266 -0.446476 -81.0398 -44.9032 91.9015 -0.849078 -26.7361 15.9725 -0.473677 28.8053 -9.97318 6.5763 -0.598783 -10.8973 24.4725 -5.72165 10.0171 -21.5649 -7.65805 -8.39056 
